# xmcd
#
# Track frame offsets: 
#        150
#        10011
#        23991
#        36779
#        55151
#        71710
#        84573
#        102558
#        113824
#        128582
#        142744
#
# Disc length: 2157 seconds
#
# Revision: 0
# Processed by: cddbd v1.5.2PL0 Copyright (c) Steve Scherf et al.
# Submitted via: ExactAudioCopy v0.95a5
#
DISCID=8a086b0b
DTITLE=Anne Murray - Icon
DYEAR=2013
DGENRE=Country
TTITLE0=Snowbird
TTITLE1=Danny's Song
TTITLE2=A Love Song
TTITLE3=You Won't See Me
TTITLE4=You Needed Me
TTITLE5=I Just Fall in Love Again
TTITLE6=Broken Hearted Me
TTITLE7=Daydream Believer
TTITLE8=Could I Have This Dance
TTITLE9=A Little Good News
TTITLE10=Now and Forever (You and Me)
EXTD=
EXTT0=
EXTT1=
EXTT2=
EXTT3=
EXTT4=
EXTT5=
EXTT6=
EXTT7=
EXTT8=
EXTT9=
EXTT10=
PLAYORDER=
